<svg width="22" height="28" viewBox="0 0 22 28" fill="none" xmlns="http://www.w3.org/2000/svg">
<path d="M11 16.6499C14.3504 16.6499 17.0762 13.9242 17.0762 10.5739C17.0762 7.22355 14.3504 4.49771 11 4.49771C7.64958 4.49771 4.92385 7.22345 4.92385 10.5739C4.92385 13.9242 7.64958 16.6499 11 16.6499ZM11 6.06719C13.485 6.06719 15.5067 8.08882 15.5067 10.5739C15.5067 13.0588 13.485 15.0805 11 15.0805C8.51506 15.0805 6.49332 13.0588 6.49332 10.5739C6.49332 8.08882 8.51506 6.06719 11 6.06719Z" fill="#FACC15"/>
<path d="M11 0C16.8305 0 21.5739 4.74343 21.5739 10.5739C21.5739 14.5152 19.406 17.9594 16.2002 19.7777L11.6796 27.6076C11.5394 27.8504 11.2803 28 11 28C10.7197 28 10.4606 27.8504 10.3204 27.6076L5.72523 19.6486C5.5085 19.2732 5.63713 18.7933 6.01245 18.5766C6.38793 18.3599 6.8677 18.4885 7.08437 18.8639L10.9999 25.6458L13.8173 20.766C12.9199 21.0144 11.9752 21.1477 10.9999 21.1477C10.5665 21.1477 10.2152 20.7964 10.2152 20.363C10.2152 19.9296 10.5666 19.5782 10.9999 19.5782C15.965 19.5782 20.0043 15.5389 20.0043 10.5738C20.0043 5.6088 15.965 1.56948 11 1.56948C6.03498 1.56948 1.99559 5.60886 1.99559 10.5739C1.99559 12.8107 2.82132 14.9553 4.32063 16.6125C4.61135 16.934 4.58658 17.4302 4.26518 17.721C3.94384 18.0117 3.44755 17.9869 3.15672 17.6655C1.39594 15.7192 0.426171 13.2006 0.426171 10.5739C0.426116 4.74343 5.16955 0 11 0Z" fill="#FACC15"/>
</svg>
