<svg width="35" height="34" viewBox="0 0 35 34" fill="none" xmlns="http://www.w3.org/2000/svg">
<rect y="0.529419" width="32.941" height="32.941" rx="4" fill="#431407"/>
<path d="M10.5879 28.1648L14.8982 26.123C14.9924 26.0784 15.0395 26.0561 15.0547 26.0238C15.0664 25.9992 15.0675 25.9709 15.0578 25.9455C15.0451 25.9121 14.9999 25.8862 14.9095 25.8343L13.1948 24.8511L12.2944 24.2419L11.4836 23.7189L10.5832 23.1097L9.50776 22.1601L8.88344 21.4731L8.34667 20.9563L8.13516 20.7527L8.13516 20.7527C8.08355 20.703 8.05775 20.6781 8.02939 20.6723C8.00758 20.6678 7.98489 20.6707 7.96493 20.6806C7.93898 20.6934 7.92031 20.724 7.88298 20.7852L7.88298 20.7852L5.92644 23.9901C5.85691 24.104 5.82215 24.1609 5.83024 24.1997C5.83638 24.229 5.85539 24.2541 5.88203 24.268C5.91716 24.2862 5.98137 24.2681 6.1098 24.2319L6.98196 23.986C7.10603 23.951 7.16807 23.9335 7.20292 23.9512C7.22935 23.9646 7.24846 23.9891 7.25507 24.018C7.26378 24.0562 7.23172 24.1121 7.16761 24.2239L4.53239 28.8206C4.46443 28.9391 4.43045 28.9984 4.43992 29.0372C4.44709 29.0666 4.46718 29.0912 4.49457 29.104C4.53071 29.121 4.59555 29.0994 4.72521 29.0563L10.5318 27.1265C10.6657 27.082 10.7326 27.0598 10.769 27.0772C10.7966 27.0904 10.8166 27.1155 10.8233 27.1453C10.8323 27.1847 10.7957 27.245 10.7226 27.3657L10.7226 27.3657L10.3787 27.933C10.2915 28.0769 10.2479 28.1488 10.2589 28.19C10.2672 28.2211 10.2899 28.2462 10.32 28.2577C10.3598 28.2728 10.4358 28.2368 10.5879 28.1648L10.5879 28.1648Z" fill="#B91C1C" stroke="#ED6D30" stroke-width="0.1"/>
<g clip-path="url(#clip0_81_31)">
<path d="M18.4122 26.4396C18.4122 26.4396 19.4803 27.1899 20.169 27.0392C20.8595 26.8877 21.5181 26.3366 21.8788 25.8097C22.2395 25.2828 22.4897 24.7322 22.4691 24.1924C22.4484 23.6525 22.2482 23.2578 22.2482 23.2578C22.2482 23.2578 23.02 21.6671 23.8762 19.0512C24.7323 16.4353 25.6871 13.1574 26.0719 9.74461C26.4566 6.33177 26.4209 5.18194 26.1041 4.4252C25.7872 3.66847 24.6629 4.17204 24.3499 4.4058C24.0369 4.63955 20.6575 11.7714 20.6575 11.7714L18.4122 26.4396Z" fill="#FF8E00"/>
<path d="M20.3844 23.2166L19.9031 24.2747C19.9031 24.2747 18.792 25.6294 19.0847 26.3285C19.3775 27.0276 20.169 27.0392 20.169 27.0392C20.169 27.0392 19.4768 27.4318 17.7145 27.1426C15.9523 26.8534 14.3809 26.2111 13.2668 25.5129C12.1528 24.8146 10.825 23.9348 10.0184 23.3132C9.21183 22.6916 7.8845 21.1604 7.10753 20.286C6.33134 19.4135 4.96716 17.382 4.74505 16.2775C4.52293 15.1729 5.03907 14.4433 5.76606 14.1389C6.49305 13.8345 7.06266 13.8014 7.26842 13.8857C7.47417 13.97 8.69291 14.5894 8.69291 14.5894L20.3844 23.2166Z" fill="#F5B03E"/>
<path d="M16.459 22.4585L18.3807 23.7758L20.1832 23.9105C20.1832 23.9105 20.617 23.5583 20.7811 23.2143C20.9459 22.8721 21.9978 20.1393 22.6068 18.2431C23.0821 16.7635 24.0861 13.6136 24.0861 13.6136C24.0861 13.6136 25.0393 13.1031 25.6906 12.7014C26.2081 12.382 27.1298 11.9895 26.8593 11.4166C26.5176 10.6943 25.2039 11.7426 24.9743 11.1526C24.5159 9.97434 28.1536 9.81042 27.6121 8.56426C27.181 7.57126 25.7229 8.92699 25.2197 8.54985C24.9462 8.34535 25.399 7.52198 25.4156 6.48137C25.4351 5.19701 25.5168 4.38484 25.2068 4.1038C24.5519 3.51046 17.1397 8.44324 15.8445 9.19102C14.5492 9.9388 7.88537 13.7518 7.67787 13.9087C7.47037 14.0655 7.94045 15.2716 7.94045 15.2716L9.35033 16.8381L10.7976 19.3134L13.9251 21.6314L16.459 22.4585Z" fill="#FFCC8A"/>
<path d="M16.3579 23.0363C16.9212 23.4735 17.4106 24.1361 18.6978 24.3292C19.7702 24.4899 20.7036 24.2608 20.6156 23.8627C20.5276 23.4647 19.1197 23.7242 18.4225 23.4371C17.3014 22.9777 16.9499 22.3732 16.3398 22.0955C15.7296 21.8177 14.3801 21.7993 12.5787 20.3312C10.4792 18.6207 10.2385 17.1743 9.8295 16.7402C9.29481 16.173 8.80574 16.1637 8.27829 15.3946C7.7213 14.5811 7.81717 13.8132 7.81717 13.8132C7.81717 13.8132 7.26191 13.8075 7.1554 14.169C7.04889 14.5305 7.0857 15.0985 7.60213 15.8569C8.16613 16.6872 9.05409 17.1064 9.1479 17.2835C9.24171 17.4606 9.92997 19.3861 12.1439 21.088C14.3578 22.7899 15.8605 22.6523 16.3579 23.0363Z" fill="#CB6C22"/>
<path d="M17.3152 19.6132L19.2312 22.3467C19.2312 22.3467 19.8215 22.1542 19.9783 22.0536C20.507 21.7142 21.0994 20.5767 21.06 20.06C21.0206 19.5432 20.6504 18.6122 20.3897 18.3651C20.1289 18.1181 19.0926 17.4856 18.6903 17.5164C18.288 17.5472 16.8231 18.1977 16.685 18.5309C16.5489 18.8633 17.3152 19.6132 17.3152 19.6132Z" fill="#DB0D27"/>
<path d="M17.2611 22.1249C17.6449 22.3422 18.7483 22.6079 19.3316 22.3047C19.9167 22.0007 20.5379 20.5146 20.5191 20.1881C20.5004 19.8616 20.1294 18.9286 19.9636 18.7205C19.7978 18.5124 18.7448 17.8869 18.4545 17.8511C18.1623 17.8161 16.8017 18.246 16.6593 18.5635C16.5169 18.881 16.1011 19.8243 16.1666 20.4088C16.2348 20.9943 16.8981 21.9207 17.2611 22.1249Z" fill="#ED6D30"/>
<path d="M16.8615 13.2428C16.8615 13.2428 17.7849 15.9856 17.9662 15.949C18.1476 15.9124 18.8203 15.7028 19.2701 15.3156C19.5903 15.0417 20.1107 14.4894 20.113 13.4614C20.1152 12.4333 19.3617 11.7611 19.1006 11.6125C18.6125 11.334 18.1123 11.2353 17.85 11.2665C17.5877 11.2976 16.8615 13.2428 16.8615 13.2428Z" fill="#DB0D27"/>
<path d="M16.007 15.1216C16.3278 15.4702 17.3477 16.1992 18.0285 15.936C18.7086 15.6709 19.3283 14.8389 19.4065 14.5089C19.4847 14.179 19.6218 13.1338 19.3283 12.5268C19.034 11.918 18.1712 11.2718 17.8526 11.2676C17.5339 11.2633 16.7227 11.544 16.3402 11.7631C15.9578 11.9823 15.4164 13.2361 15.4636 13.7299C15.5127 14.2229 15.7182 14.8077 16.007 15.1216Z" fill="#ED6D30"/>
<path d="M22.3372 12.589C22.3372 12.589 22.6848 15.3084 22.749 15.3208C22.8132 15.3333 23.3744 15.4938 23.542 15.3253C23.7096 15.1568 24.0387 14.0116 24.1938 13.5314C24.3489 13.0512 24.5286 11.7216 24.4534 11.6045C24.2763 11.3225 23.6911 11.2922 23.6911 11.2922L22.3372 12.589Z" fill="#DB0D27"/>
<path d="M21.2197 12.8012C21.0319 13.5791 21.429 14.4334 21.8453 14.812C22.2617 15.1905 22.6661 15.3577 22.9065 15.316C23.1469 15.2744 23.4063 14.7091 23.4596 14.5075C23.5136 14.3079 23.668 13.7057 23.668 13.7057C23.668 13.7057 23.9155 12.8044 24.0038 12.4724C24.127 12.01 24.0958 11.5073 24.0635 11.3832C24.0311 11.259 23.0957 11.0083 22.1951 11.5034C21.7353 11.7571 21.3785 12.1469 21.2197 12.8012Z" fill="#ED6D30"/>
<path d="M18.1012 9.12674L18.4476 10.0481C18.4476 10.0481 19.2924 10.1293 19.9599 9.55252C20.5057 9.08143 20.7017 8.49017 20.6005 7.68468C20.5003 6.87655 20.2588 6.50344 20.2588 6.50344L19.7466 6.70483L18.1012 9.12674Z" fill="#DB0D27"/>
<path d="M16.5751 8.73867C16.5751 8.73867 16.9118 9.91325 18.1933 10.0563C19.1762 10.1648 19.7126 9.57744 19.9514 9.06224C20.1902 8.54703 20.2181 7.90381 20.0826 7.48633C19.9472 7.06885 19.7521 6.69163 19.7521 6.69163C19.7521 6.69163 18.7855 7.2799 17.9867 7.79361C17.5087 8.10301 16.5751 8.73867 16.5751 8.73867Z" fill="#ED6D30"/>
<path d="M10.6614 15.0479C10.6614 15.0479 11.6362 17.1878 11.9124 17.2317C12.1886 17.2755 13.1621 16.8657 13.5208 16.6369C13.8795 16.408 14.5735 15.4246 14.0975 14.2407C13.6214 13.0568 13.154 12.7651 12.0737 12.6799C10.9935 12.5946 10.198 13.4871 10.198 13.4871L10.6614 15.0479Z" fill="#DB0D27"/>
<path d="M9.66162 15.4469C9.76749 15.9555 10.2338 16.5316 10.5871 16.7595C10.9404 16.9875 11.6121 17.3181 11.9626 17.2107C12.3132 17.1032 13.1606 16.3922 13.2974 16.1972C13.4325 16.003 13.7286 15.3064 13.7373 15.1236C13.7567 14.7003 13.2651 13.761 13.0448 13.5167C12.8245 13.2724 11.854 12.75 11.4825 12.8073C11.1109 12.8645 10.498 13.0031 9.97018 13.6787C9.44232 14.3543 9.56419 14.9741 9.66162 15.4469Z" fill="#ED6D30"/>
<path d="M22.4896 6.47628L23.2164 8.44685C23.2164 8.44685 23.8479 8.48838 24.2726 8.21877C24.6254 7.99673 25.0107 7.46608 24.9923 6.81162C24.9811 6.44043 24.5509 5.63722 24.3258 5.49109C23.8703 5.19666 23.3019 5.27953 23.0433 5.4031C22.908 5.46629 22.4896 6.47628 22.4896 6.47628Z" fill="#DB0D27"/>
<path d="M21.8446 7.24244C21.9785 7.77637 22.4921 8.24094 22.8549 8.38187C23.2177 8.5228 23.5622 8.43754 23.913 8.17922C24.5545 7.70735 24.5657 7.1651 24.5866 6.9072C24.6168 6.52525 24.2239 5.67576 23.9039 5.49072C23.5865 5.30676 23.1513 5.2486 22.6404 5.53682C22.1285 5.82767 21.6127 6.32336 21.8446 7.24244Z" fill="#ED6D30"/>
<path d="M14.1676 24.7729C14.5622 24.588 14.1991 23.914 14.0552 23.6486C13.9403 23.4367 13.6618 22.9021 13.3011 23.0531C12.9404 23.2042 13.1447 23.6868 13.3087 24.0421C13.4673 24.3843 13.8559 24.9209 14.1676 24.7729Z" fill="#FCC12B"/>
<path d="M10.2213 21.9869C10.4853 21.8764 10.3899 21.5754 10.3293 21.3889C10.2667 21.2031 10.0999 20.9976 9.88725 21.0691C9.67355 21.1433 9.62372 21.374 9.72126 21.6434C9.82053 21.9275 9.99818 22.0804 10.2213 21.9869Z" fill="#FCC12B"/>
<path d="M10.1332 19.9915C10.31 19.605 9.75853 19.3683 9.51979 19.3043C9.28183 19.2423 8.99311 19.3304 8.91936 19.5404C8.84561 19.7505 9.11767 19.9775 9.37899 20.0954C9.64031 20.2132 10.0221 20.2325 10.1332 19.9915Z" fill="#FCC12B"/>
<path d="M7.4089 17.603C7.63972 17.1261 6.80085 16.8502 6.49996 16.7161C6.19907 16.5821 5.8335 16.5232 5.68642 16.8295C5.53935 17.1359 6.06727 17.4677 6.35026 17.559C6.63216 17.6529 7.26182 17.9094 7.4089 17.603Z" fill="#FCC12B"/>
<path d="M17.8903 25.1983C17.8331 24.853 17.4184 24.9064 17.1114 24.9716C16.7979 25.0373 16.5209 25.1533 16.5789 25.4066C16.6445 25.6938 16.9738 25.7285 17.2538 25.6615C17.5047 25.598 17.9429 25.5172 17.8903 25.1983Z" fill="#FCC12B"/>
</g>
<path d="M23.785 27.0499C23.7448 27.0237 23.7335 26.9699 23.7597 26.9298L28.1637 20.1773C28.1899 20.1372 28.2436 20.1259 28.2838 20.152V20.152C28.3239 20.1782 28.3352 20.232 28.3091 20.2721L23.9051 27.0246C23.8789 27.0647 23.8251 27.0761 23.785 27.0499V27.0499Z" fill="#666565"/>
<path d="M23.785 27.0499C23.7448 27.0237 23.7335 26.9699 23.7597 26.9298L28.1637 20.1773C28.1899 20.1372 28.2436 20.1259 28.2838 20.152V20.152C28.3239 20.1782 28.3352 20.232 28.3091 20.2721L23.9051 27.0246C23.8789 27.0647 23.8251 27.0761 23.785 27.0499V27.0499Z" fill="#666565"/>
<path d="M23.785 27.0499C23.7448 27.0237 23.7335 26.9699 23.7597 26.9298L28.1637 20.1773C28.1899 20.1372 28.2436 20.1259 28.2838 20.152V20.152C28.3239 20.1782 28.3352 20.232 28.3091 20.2721L23.9051 27.0246C23.8789 27.0647 23.8251 27.0761 23.785 27.0499V27.0499Z" fill="#666565"/>
<path d="M23.785 27.0499C23.7448 27.0237 23.7335 26.9699 23.7597 26.9298L28.1637 20.1773C28.1899 20.1372 28.2436 20.1259 28.2838 20.152V20.152C28.3239 20.1782 28.3352 20.232 28.3091 20.2721L23.9051 27.0246C23.8789 27.0647 23.8251 27.0761 23.785 27.0499V27.0499Z" fill="#666565"/>
<path d="M6.24908 11.5924C6.20893 11.5662 6.19762 11.5125 6.2238 11.4723L10.6278 4.71986C10.654 4.67972 10.7077 4.6684 10.7479 4.69459V4.69459C10.788 4.72077 10.7993 4.77453 10.7732 4.81467L6.36916 11.5671C6.34298 11.6073 6.28922 11.6186 6.24908 11.5924V11.5924Z" fill="#666565"/>
<path d="M26.8373 26.0041C26.7972 25.9779 26.7859 25.9242 26.8121 25.884L31.2161 19.1315C31.2422 19.0914 31.296 19.0801 31.3361 19.1063V19.1063C31.3763 19.1324 31.3876 19.1862 31.3614 19.2264L26.9574 25.9788C26.9312 26.019 26.8775 26.0303 26.8373 26.0041V26.0041Z" fill="#666565"/>
<path d="M4.19036 11.5924C4.15022 11.5662 4.1389 11.5125 4.16508 11.4723L8.56908 4.71986C8.59526 4.67972 8.64903 4.6684 8.68917 4.69459V4.69459C8.72931 4.72077 8.74063 4.77453 8.71445 4.81467L4.31045 11.5671C4.28427 11.6073 4.2305 11.6186 4.19036 11.5924V11.5924Z" fill="#666565"/>
<defs>
<clipPath id="clip0_81_31">
<rect width="25.8013" height="25.8013" fill="white" transform="translate(11.2009 33.8822) rotate(-112.72)"/>
</clipPath>
</defs>
</svg>
