<svg width="208" height="208" viewBox="0 0 208 208" fill="none" xmlns="http://www.w3.org/2000/svg">
<g clip-path="url(#clip0_80_31)">
<path d="M105.802 161.769C105.802 161.769 112.338 166.361 116.553 165.438C120.779 164.512 124.809 161.139 127.017 157.914C129.224 154.69 130.755 151.32 130.629 148.016C130.503 144.712 129.277 142.297 129.277 142.297C129.277 142.297 134.001 132.562 139.24 116.553C144.48 100.544 150.323 80.4842 152.678 59.5981C155.032 38.7121 154.814 31.6753 152.875 27.0442C150.936 22.4131 144.055 25.4949 142.139 26.9254C140.224 28.3559 119.542 72.0017 119.542 72.0017L105.802 161.769Z" fill="#FF8E00"/>
<path d="M117.871 142.044L114.925 148.52C114.925 148.52 108.126 156.811 109.917 161.089C111.708 165.367 116.553 165.439 116.553 165.439C116.553 165.439 112.316 167.841 101.532 166.071C90.7469 164.301 81.1303 160.371 74.3124 156.097C67.4945 151.824 59.3689 146.44 54.4326 142.636C49.4963 138.832 41.3733 129.461 36.6183 124.11C31.8682 118.77 23.5196 106.338 22.1603 99.5783C20.8009 92.8187 23.9597 88.3532 28.4087 86.4903C32.8578 84.6273 36.3437 84.4248 37.6029 84.9407C38.8621 85.4566 46.3206 89.2477 46.3206 89.2477L117.871 142.044Z" fill="#F5B03E"/>
<path d="M93.8482 137.406L105.609 145.467L116.64 146.291C116.64 146.291 119.295 144.136 120.299 142.031C121.308 139.936 127.745 123.212 131.472 111.608C134.381 102.553 140.525 83.276 140.525 83.276C140.525 83.276 146.359 80.1514 150.345 77.6934C153.512 75.7387 159.152 73.3366 157.497 69.8304C155.405 65.4102 147.366 71.8257 145.961 68.2147C143.156 61.0041 165.418 60.0009 162.104 52.3746C159.466 46.2976 150.542 54.5944 147.463 52.2864C145.789 51.0348 148.56 45.996 148.662 39.6276C148.781 31.7675 149.281 26.7971 147.384 25.0772C143.376 21.4461 98.0144 51.6339 90.0875 56.2102C82.1607 60.7866 41.3791 84.1218 40.1093 85.0815C38.8394 86.0412 41.7162 93.4225 41.7162 93.4225L50.3445 103.009L59.2017 118.158L78.3416 132.344L93.8482 137.406Z" fill="#FFCC8A"/>
<path d="M93.2291 140.941C96.6765 143.617 99.6717 147.672 107.549 148.854C114.112 149.837 119.824 148.435 119.286 145.999C118.747 143.563 110.131 145.151 105.864 143.394C99.0036 140.583 96.8525 136.883 93.1184 135.183C89.3843 133.484 81.1256 133.371 70.1015 124.386C57.2528 113.918 55.7797 105.067 53.2765 102.41C50.0043 98.9392 47.0113 98.8819 43.7833 94.1752C40.3746 89.1965 40.9613 84.4974 40.9613 84.4974C40.9613 84.4974 37.5632 84.4625 36.9114 86.6746C36.2595 88.8868 36.4848 92.3632 39.6453 97.0045C43.0969 102.086 48.5311 104.651 49.1052 105.735C49.6793 106.819 53.8914 118.603 67.4403 129.018C80.9892 139.433 90.1856 138.591 93.2291 140.941Z" fill="#CB6C22"/>
<path d="M99.088 119.992L110.814 136.721C110.814 136.721 114.426 135.543 115.385 134.927C118.621 132.85 122.246 125.889 122.005 122.727C121.765 119.564 119.499 113.866 117.903 112.355C116.307 110.843 109.965 106.972 107.503 107.16C105.041 107.349 96.0761 111.33 95.2313 113.369C94.398 115.403 99.088 119.992 99.088 119.992Z" fill="#DB0D27"/>
<path d="M98.7572 135.363C101.106 136.693 107.859 138.319 111.428 136.464C115.009 134.603 118.81 125.509 118.696 123.511C118.581 121.512 116.311 115.803 115.296 114.529C114.282 113.256 107.837 109.428 106.061 109.209C104.273 108.995 95.9457 111.625 95.0742 113.568C94.2027 115.511 91.6583 121.284 92.0593 124.861C92.4765 128.444 96.5355 134.114 98.7572 135.363Z" fill="#ED6D30"/>
<path d="M96.3114 81.0069C96.3114 81.0069 101.962 97.7919 103.072 97.5679C104.182 97.3439 108.299 96.0614 111.051 93.6918C113.011 92.0154 116.196 88.6355 116.21 82.3441C116.223 76.0528 111.612 71.9388 110.014 71.0297C107.027 69.3249 103.966 68.7211 102.36 68.9118C100.755 69.1025 96.3114 81.0069 96.3114 81.0069Z" fill="#DB0D27"/>
<path d="M91.0821 92.5047C93.0454 94.6382 99.2867 99.0995 103.453 97.4885C107.615 95.8661 111.408 90.7742 111.886 88.755C112.365 86.7359 113.204 80.3396 111.408 76.6249C109.607 72.8988 104.327 68.9444 102.377 68.9184C100.426 68.8925 95.4619 70.6102 93.1214 71.9513C90.7808 73.2924 87.4674 80.9655 87.7564 83.9873C88.0568 87.0043 89.3147 90.5834 91.0821 92.5047Z" fill="#ED6D30"/>
<path d="M129.822 77.0054C129.822 77.0054 131.949 93.6476 132.342 93.7237C132.735 93.7999 136.169 94.7827 137.195 93.7513C138.221 92.7199 140.235 85.7114 141.184 82.7729C142.134 79.8343 143.233 71.6973 142.773 70.9807C141.689 69.2546 138.107 69.0692 138.107 69.0692L129.822 77.0054Z" fill="#DB0D27"/>
<path d="M122.984 78.3041C121.834 83.065 124.264 88.293 126.812 90.6096C129.36 92.9262 131.835 93.9495 133.306 93.6945C134.778 93.4395 136.365 89.9799 136.691 88.7466C137.022 87.5248 137.966 83.8394 137.966 83.8394C137.966 83.8394 139.482 78.3235 140.022 76.2919C140.776 73.4619 140.585 70.3858 140.387 69.6261C140.189 68.8663 134.464 67.3315 128.953 70.3616C126.139 71.9142 123.955 74.2999 122.984 78.3041Z" fill="#ED6D30"/>
<path d="M103.898 55.8169L106.019 61.4554C106.019 61.4554 111.188 61.9521 115.274 58.4226C118.614 55.5396 119.813 51.9212 119.194 46.9917C118.581 42.046 117.103 39.7627 117.103 39.7627L113.968 40.9951L103.898 55.8169Z" fill="#DB0D27"/>
<path d="M94.5588 53.442C94.5588 53.442 96.6191 60.6302 104.462 61.5056C110.477 62.1698 113.76 58.5752 115.221 55.4222C116.683 52.2692 116.853 48.3328 116.024 45.7779C115.195 43.2229 114.001 40.9144 114.001 40.9144C114.001 40.9144 108.086 44.5146 103.197 47.6584C100.272 49.5518 94.5588 53.442 94.5588 53.442Z" fill="#ED6D30"/>
<path d="M58.3683 92.0534C58.3683 92.0534 64.3334 105.149 66.0239 105.418C67.7144 105.686 73.672 103.178 75.8673 101.778C78.0625 100.377 82.3098 94.359 79.3962 87.1135C76.4826 79.8679 73.6223 78.0832 67.0112 77.5615C60.4001 77.0399 55.5323 82.5018 55.5323 82.5018L58.3683 92.0534Z" fill="#DB0D27"/>
<path d="M52.2492 94.4953C52.8971 97.6076 55.751 101.133 57.9131 102.528C60.0753 103.923 64.1858 105.947 66.3311 105.289C68.4764 104.632 73.6622 100.28 74.4999 99.087C75.3262 97.8984 77.1388 93.6355 77.1918 92.5167C77.3107 89.9259 74.302 84.1779 72.9538 82.6829C71.6056 81.1878 65.6664 77.9909 63.3925 78.3413C61.1185 78.6916 57.368 79.5399 54.1375 83.6743C50.9071 87.8087 51.6529 91.6021 52.2492 94.4953Z" fill="#ED6D30"/>
<path d="M130.755 39.5964L135.203 51.656C135.203 51.656 139.067 51.9101 141.666 50.2601C143.825 48.9013 146.183 45.6538 146.071 41.6486C146.003 39.377 143.369 34.4615 141.992 33.5671C139.204 31.7653 135.726 32.2724 134.143 33.0286C133.315 33.4153 130.755 39.5964 130.755 39.5964Z" fill="#DB0D27"/>
<path d="M126.807 44.2853C127.627 47.5529 130.77 50.396 132.99 51.2585C135.21 52.121 137.319 51.5991 139.465 50.0183C143.391 47.1305 143.46 43.812 143.588 42.2337C143.772 39.8962 141.368 34.6975 139.41 33.5651C137.467 32.4393 134.804 32.0833 131.677 33.8472C128.544 35.6271 125.388 38.6607 126.807 44.2853Z" fill="#ED6D30"/>
<path d="M79.8253 151.569C82.2402 150.437 80.0182 146.313 79.1376 144.689C78.434 143.392 76.7297 140.12 74.5223 141.044C72.3148 141.969 73.565 144.922 74.569 147.096C75.5396 149.191 77.9176 152.475 79.8253 151.569Z" fill="#FCC12B"/>
<path d="M55.6748 134.519C57.2906 133.843 56.7066 132.001 56.3355 130.859C55.953 129.722 54.9316 128.465 53.6305 128.903C52.3227 129.357 52.0177 130.768 52.6146 132.417C53.2222 134.156 54.3094 135.091 55.6748 134.519Z" fill="#FCC12B"/>
<path d="M55.1353 122.308C56.2176 119.942 52.8426 118.493 51.3816 118.102C49.9252 117.722 48.1584 118.262 47.707 119.547C47.2557 120.833 48.9206 122.222 50.5199 122.943C52.1191 123.664 54.4556 123.783 55.1353 122.308Z" fill="#FCC12B"/>
<path d="M38.4627 107.69C39.8753 104.772 34.7415 103.083 32.9001 102.263C31.0587 101.443 28.8215 101.082 27.9214 102.957C27.0213 104.832 30.2522 106.862 31.984 107.421C33.7092 107.996 37.5627 109.565 38.4627 107.69Z" fill="#FCC12B"/>
<path d="M102.608 154.173C102.258 152.059 99.7199 152.386 97.8408 152.785C95.9228 153.187 94.2273 153.897 94.5821 155.447C94.9837 157.205 96.9987 157.417 98.7127 157.007C100.248 156.618 102.93 156.124 102.608 154.173Z" fill="#FCC12B"/>
</g>
<path d="M57.6701 172.453L77.9805 161.374C78.8315 160.91 79.2571 160.678 79.3937 160.361C79.498 160.119 79.5027 159.846 79.4067 159.601C79.2811 159.28 78.8638 159.033 78.0292 158.54L69.5 153.5L64.5 150L60 147L55 143.5L49 138L45.5 134L42.5 131L42.0556 130.556C41.5121 130.012 41.2403 129.74 40.9435 129.681C40.7155 129.635 40.4788 129.67 40.274 129.781C40.0073 129.924 39.8265 130.263 39.4648 130.941L30.423 147.894C29.8039 149.055 29.4944 149.636 29.5959 150.016C29.6728 150.305 29.8747 150.544 30.1464 150.668C30.5046 150.832 31.1287 150.624 32.3767 150.208L33.7668 149.744C34.9748 149.342 35.5788 149.14 35.9341 149.299C36.2036 149.42 36.4062 149.653 36.4874 149.937C36.5944 150.311 36.3096 150.881 35.7401 152.02L23.3899 176.72C22.7843 177.931 22.4814 178.537 22.5968 178.918C22.6842 179.207 22.8973 179.441 23.1767 179.554C23.5453 179.705 24.1764 179.459 25.4386 178.968L53.4942 168.058C54.7335 167.576 55.3532 167.335 55.7107 167.469C56.0195 167.584 56.2514 167.845 56.3306 168.165C56.4223 168.536 56.1112 169.123 55.489 170.299C54.7403 171.713 54.366 172.42 54.478 172.808C54.5745 173.142 54.8379 173.402 55.1734 173.495C55.563 173.602 56.2653 173.219 57.6701 172.453Z" fill="#DB0D27" stroke="#ED6D30"/>
<defs>
<clipPath id="clip0_80_31">
<rect width="157.9" height="157.9" fill="white" transform="translate(61.6697 207.317) rotate(-112.72)"/>
</clipPath>
</defs>
</svg>
